<?xml version="1.0" encoding="utf-8"?>
<!-- Generator: Adobe Illustrator 24.0.2, SVG Export Plug-In . SVG Version: 6.00 Build 0)  -->
<svg version="1.1" id="Layer_1" xmlns="http://www.w3.org/2000/svg" xmlns:xlink="http://www.w3.org/1999/xlink" x="0px" y="0px"
	 viewBox="0 0 296 246" style="enable-background:new 0 0 296 246;" xml:space="preserve">
<style type="text/css">
	.st0{fill:#FFFFFF;filter:url(#Adobe_OpacityMaskFilter);}
	.st1{mask:url(#mask0_840_3625_1_);}
	.st2{fill:#DD1F33;}
	.st3{fill:#FFFFFF;filter:url(#Adobe_OpacityMaskFilter_1_);}
	.st4{mask:url(#mask1_840_3625_1_);}
	.st5{fill:#1A4687;}
	.st6{fill:#FFFFFF;}
</style>
<defs>
	<filter id="Adobe_OpacityMaskFilter" filterUnits="userSpaceOnUse" x="148.2" y="0" width="123.2" height="246">
		<feColorMatrix  type="matrix" values="1 0 0 0 0  0 1 0 0 0  0 0 1 0 0  0 0 0 1 0"/>
	</filter>
</defs>
<mask maskUnits="userSpaceOnUse" x="148.2" y="0" width="123.2" height="246" id="mask0_840_3625_1_">
	<path class="st0" d="M148.2,246c68,0,123.2-55.1,123.2-123S216.2,0,148.2,0C80.2,0,25,55.1,25,123S80.2,246,148.2,246z"/>
</mask>
<g class="st1">
	<path class="st2" d="M271.4,0H148.2v246h123.2V0z"/>
</g>
<defs>
	<filter id="Adobe_OpacityMaskFilter_1_" filterUnits="userSpaceOnUse" x="25" y="0" width="123.2" height="246">
		<feColorMatrix  type="matrix" values="1 0 0 0 0  0 1 0 0 0  0 0 1 0 0  0 0 0 1 0"/>
	</filter>
</defs>
<mask maskUnits="userSpaceOnUse" x="25" y="0" width="123.2" height="246" id="mask1_840_3625_1_">
	<path class="st3" d="M148.2,246c68,0,123.2-55.1,123.2-123S216.2,0,148.2,0C80.2,0,25,55.1,25,123S80.2,246,148.2,246z"/>
</mask>
<g class="st4">
	<path class="st5" d="M148.2,0H25v246h123.2V0z"/>
</g>
<path class="st6" d="M83.1,56.5c1.3-5.8,2.4-6.7,1.9-9.1c-0.5-2.5-0.1-3.2,0.6-3.2c0.6,0,0.6,1.8,1,2.4c0.4,0.8,0.9,1.9,1.1-0.1
	c0.3-1.9-1.3-4.1-0.1-4.7c1.1-0.5,1.6,1.8,1.6,2.8c0.1,1,0.1,2.3,0.6,2c0.4-0.3,0.3-1.5,0.4-2.7c0.1-1-0.1-2.8,0.8-2.5
	c0.9,0.3,1.4,2.7,1.1,4.1C92,47,92,47.4,92.4,47.4s0.6-0.4,0.8-1.6c0.1-1.3,0.3-2.5,1-2.5c0.8,0,1.3,1.9,1,3.3
	c-0.1,1.4-0.5,4.2-0.6,5.1c-0.3,0.9-0.5,3.2,0.6,1.8c1-1.4,3.8-2.5,4.6-2c0.6,0.5-1.9,3-2.7,3.5c-0.6,0.5-1.1,2.5-3.4,3
	c-2.3,0.5-4.4,1.3-4.9,2.7c-0.5,1.4-2.7,4.3-1,4.3c1.8,0,4.8-3,9-0.5c0,0,3.6-4.8,7.1-4.7c3.6,0.1,4.1,1.3,5.1,0.8
	c1-0.5,2.7,0.4,3.7-1.4c1-1.9,3.2,0,3.8-1c0.6-1,4.4-1.9,6.1-2.3c1.7-0.4-0.9-0.6-2.7-1c-1.8-0.4-3.6,1-3.7-2
	c-0.3-3-1.5-3.3-0.1-3.8c0,0-1.1-0.6-0.3-1.4c0.5-0.5,1.3-1.8,0.6-2.2c-0.5-0.4-1.8-0.6-0.9-1.6s1.8-1.4,2.4-3.4
	c0.6-2-0.6-1.9,0.8-3.5c1.4-1.6,4.3-7.3,12.1-5.3c7.6,2,9.3,6.5,9.3,10.8s-5.3,9-4.7,12.2c0.6,3,1.3-0.1,3.9,2
	c2.7,2.2,5.6-0.9,8.8-0.5c3,0.5,7.9,1.9,10.7,4.7c0,0,7.9-4.2,15,1.6c0,0,6.1-8.1,6.3-13.7c0.3-5.6,3.2-8.7,0.5-11.5
	c-2.7-2.8-7.5-5.8-6.7-10.3v-0.1c-1.6-2.2-2.7-4.8-2.7-7.6c0-6.8,5.6-12.3,12.3-12.3c6.9,0,12.3,5.6,12.3,12.3
	c0,4.6-2.4,8.5-6.1,10.6c-0.3,0.6-0.6,1.6-0.6,3.2c-0.1,3.4-1.5,5.7-1.5,7.6c0,1.9,0,18.2-2.4,24.4c-2.4,6.2,0.1,6.8-3.8,7.5
	c-3.9,0.6-18.5,3.9-27.8-0.1c0,0-2.9,3-4.1,9.8s-2.7,10.6-2.2,15.2c0.5,4.4,0.9,3.8,1.8,10.1c0.9,6.3-0.1,0.1,7.1,8.5
	c3.4,4.1,1.8,12.4,4.8,16.8c3,4.4,3,13,4.4,17.2c1,2.9,3.7,5.6,5.2,6.8c0.4,0.4,0.3,1-0.3,1.3c-3.2,1-3.9,2.4-3.9,2.4
	c1.5,2.5,2.8,2,2.8,2s5.1-3.3,12.3,0.1s14.2,4.6,17,2.3c2.8-2.3,8.4-4.8,9.9-2.4c1.6,2.4,3,7.9,5.8,9.5c2.8,1.5,6.3,6.2,6.5,10.3
	c0.3,4.1,0.9,10.1-3.7,11c-4.7,0.9-6.1-9.1-10.4-12.4c-4.3-3.3-6.6-4.6-9-6.1c-1-0.6-3.9-0.9-16-0.4c-11.9,0.5-21.3,0.1-28.3-9
	c0,0-2,1.5-2.7-0.5c0,0-4.2-10.4-7.5-16c0,0-1.1,9.8,0.6,13.4c1.9,3.7,3.8,7.7,4.4,8.2c0.5,0.5-2.3,2.8-7.2,2.7
	c-4.9-0.1-3.2,3-2.9,4.3c0.3,1.3,7.4,8.5,10.2,20.5c2.8,11.9,10,10.9,12.1,15.6c2,4.8,5.6,1.3,4.4,7.3c-1.1,6.2-3.9,4.1-2,8.1
	c1.9,4.1,2.3,4.6,0.1,8.6c-2.2,4.1-5.2,5.7-6.9,3.8c-1.6-1.9-2-4.4-3-13.2c-1-8.7-1.1-8-3.6-11c-2.4-3,1.9-2.3-1.6-5.7
	c-3.6-3.5-13.3-15.8-17.6-24.6c-4.3-8.7-5.5-7.2-6-11.5c-0.5-4.3-6.7-17.9-6.7-25c0-7.1,0-14.3-0.8-18.1c-0.8-3.8,0.1-7.6,1-12.4
	c0.9-4.8,1.4-5.1,0.6-6.6c-0.8-1.5-2.3-2.4-4.4-9.9c-2.2-7.5-3.2-7.5-3.8-11.9c-0.6-4.4,0.3-6.7-1.5-10.3c-1.8-3.4,0-8.7-4.4-9.2
	c-4.4-0.5-6.5,2.9-11,2.9c-4.6,0-13.1,1.9-17-1.6C72.4,70.1,82,62.3,83.1,56.5z"/>
<path class="st5" d="M146.8,80.9c0,0,85.6-2.4,149.2,22.5L273.8,135l-1.4,43.1c0,0-39.8-21.5-124.7-23.9L146.8,80.9z"/>
<path class="st2" d="M149.2,80.9c0,0-85.6-2.4-149.2,22.5L22.2,135l1.4,43.1c0,0,39.8-21.5,124.7-23.9L149.2,80.9z"/>
<path class="st6" d="M28.7,135.4c-1.8-5.8,1.5-11.5,7.9-13.4c6.2-1.8,12.1,1.1,13.8,7.1c1.8,6-1.6,11.5-7.9,13.4
	C36.3,144.3,30.5,141.2,28.7,135.4z M45.7,130.3c-1.1-3.8-4.6-5.6-8-4.6c-3.6,1-5.5,4.4-4.3,8.1c1.1,3.8,4.6,5.6,8,4.6
	C44.9,137.4,46.8,134.1,45.7,130.3z"/>
<path class="st6" d="M67.8,118.9l1,4.2c-0.4,0-0.6,0.1-1,0.1c-2.4,0.6-3.8,2.3-3,5.2l1.6,7.2l-4.4,1l-3.6-15.5l4.3-1l0.5,2
	C63.7,120.7,65.5,119.5,67.8,118.9z"/>
<path class="st6" d="M91.7,121.6l1.6,8.9l-4.2,0.8l-0.4-1.9c-0.6,1.5-2,2.7-4.3,3c-3.7,0.6-6.2-1-6.7-3.7c-0.5-2.8,1.1-5.1,5.8-5.8
	l3.6-0.6c-0.4-1.9-1.6-2.9-4.2-2.4c-1.6,0.3-3.3,1.1-4.2,2.3l-2.2-3c1.5-1.5,3.9-2.7,6.3-3C87.8,115.1,90.8,116.8,91.7,121.6z
	 M87.9,126.3l-0.3-1.6l-3,0.5c-2.2,0.4-2.7,1.3-2.4,2.3c0.3,1.1,1.3,1.8,2.9,1.4C86.5,128.8,87.7,127.8,87.9,126.3z"/>
<path class="st6" d="M118,118.2l1,9l-4.6,0.5l-1-8.4c-0.3-2.5-1.6-3.5-3.7-3.3c-2.2,0.3-3.7,1.8-3.3,4.7l0.9,7.7l-4.6,0.5l-1.8-15.7
	l4.3-0.5l0.3,1.9c1-1.5,2.8-2.4,4.9-2.7C114.4,111.6,117.5,113.4,118,118.2z"/>
<path class="st6" d="M144.5,109.8l0.6,13.2c0.3,5.8-2.8,8.7-8.5,9c-3,0.1-6-0.5-7.9-1.8l1.6-3.4c1.4,1,3.7,1.6,5.7,1.5
	c3.3-0.1,4.6-1.6,4.4-4.6v-0.6c-1.1,1.4-2.8,2.2-4.9,2.2c-4.4,0.3-8.1-2.7-8.2-7.2c-0.3-4.6,3.2-7.9,7.6-8c2.2-0.1,4.1,0.5,5.3,2
	l-0.1-2L144.5,109.8z M140.3,117.4c-0.1-2.3-1.9-3.8-4.3-3.7c-2.4,0.1-4.1,1.8-4.1,4.1c0,2.3,1.9,3.8,4.3,3.7
	C138.7,121.4,140.3,119.7,140.3,117.4z"/>
<path class="st6" d="M170.5,119.2l-12.1-0.3c0.4,2,2,3.2,4.4,3.3c1.6,0,2.9-0.4,4.1-1.4l2.4,2.7c-1.5,1.6-3.7,2.5-6.6,2.4
	c-5.5-0.1-9-3.7-8.9-8.4c0.1-4.7,3.8-8.1,8.6-8c4.7,0.1,8.2,3.3,8.1,8.4C170.6,118.3,170.6,118.8,170.5,119.2z M158.6,116.3l7.9,0.1
	c-0.3-2-1.8-3.3-3.8-3.4C160.5,113,159,114.3,158.6,116.3z"/>
<path class="st6" d="M212.9,124.4c-0.5,3.5-3.6,5.2-8.9,4.6l-10.5-1.4l2.7-20.4l10,1.3c5.1,0.6,7.5,3.2,7.1,6.3
	c-0.3,2-1.5,3.4-3.3,4.2C212,119.8,213.2,121.7,212.9,124.4z M208.2,123.3c0.3-1.8-1-2.7-3.4-3l-5.6-0.8l-0.6,5.1l5.6,0.8
	C206.6,125.5,207.9,125,208.2,123.3z M200.3,111.2l-0.6,4.8l4.7,0.6c2.3,0.3,3.7-0.4,3.9-1.9c0.3-1.6-0.9-2.5-3.3-2.9L200.3,111.2z"
	/>
<path class="st6" d="M236.4,125.4l-1.8,8.9l-4.2-0.9l0.4-1.9c-1.1,1.3-2.9,1.6-5.2,1.3c-3.7-0.8-5.5-3.2-4.8-5.8
	c0.5-2.8,2.9-4.3,7.6-3.3l3.6,0.8c0.4-1.9-0.5-3.3-2.9-3.8c-1.6-0.4-3.4-0.1-4.8,0.5l-1-3.4c1.9-0.9,4.6-1,7.1-0.5
	C235,117.9,237.4,120.7,236.4,125.4z M231,128.4l0.4-1.6l-3-0.6c-2.2-0.4-2.9,0.3-3.2,1.3c-0.3,1.1,0.6,2,2.2,2.4
	C228.9,130.1,230.3,129.7,231,128.4z"/>
<path class="st6" d="M249.6,115.4l4.4,1.1l-5.5,21.2l-4.4-1.1L249.6,115.4z"/>
<path class="st6" d="M264.4,119.3l4.4,1.3l-6.2,20.9l-4.4-1.3L264.4,119.3z"/>
</svg>
